<svg xmlns="http://www.w3.org/2000/svg" height="800" width="1200" viewBox="-177.84525 -48.96 1541.3255 293.76"><path clip-rule="evenodd" d="M143.986 94.646c0-3.676-1.546-7.095-4.12-9.724-2.83-2.89-5.92-4.199-9.778-4.199-3.603 0-6.95 1.315-9.779 4.199-2.574 2.629-3.858 6.042-3.858 9.724 0 3.937 1.284 7.356 3.858 9.973 2.83 2.903 6.176 4.205 9.779 4.205 3.858 0 6.949-1.309 9.778-4.205 2.58-2.617 4.12-6.036 4.12-9.973z" fill="#e91e23" fill-rule="evenodd"/><path clip-rule="evenodd" d="M348.852 86.99c-2.83-2.63-5.921-3.938-9.779-3.938-3.858 0-6.95 1.315-9.779 3.937-2.574 2.89-3.857 6.043-3.857 9.98 0 3.943 1.283 7.095 3.857 9.985 2.83 2.629 6.177 3.943 9.779 3.943 3.864 0 6.95-1.32 9.779-3.943 2.573-2.89 4.113-6.036 4.113-9.985.01-3.937-1.54-7.09-4.113-9.98z" fill="#02b2e7" fill-rule="evenodd"/><path clip-rule="evenodd" d="M470.854 88.042c-2.83-2.89-5.915-4.205-9.779-4.205-3.602 0-6.949 1.315-9.779 4.205-2.574 2.629-3.857 6.036-3.857 9.718 0 3.937 1.283 7.35 3.857 9.991 2.83 2.89 6.177 4.193 9.779 4.193 3.864 0 6.95-1.308 9.779-4.193 2.574-2.64 4.12-6.048 4.12-9.991 0-3.682-1.546-7.09-4.12-9.718z" fill="#fabc16" fill-rule="evenodd"/><path clip-rule="evenodd" d="M653.111 101.289c0-3.937-1.284-7.095-3.864-9.985-2.83-2.623-6.17-4.2-9.773-4.2-3.857 0-6.949 1.577-9.772 4.2-2.574 2.89-3.864 6.042-3.864 9.985 0 3.675 1.29 7.095 3.864 9.986 2.83 2.628 5.92 3.93 9.772 3.93 3.609 0 6.95-1.308 9.773-3.93 2.58-2.89 3.864-6.31 3.864-9.986z" fill="#e91e23" fill-rule="evenodd"/><path clip-rule="evenodd" d="M843.286 88.827c-2.835-2.629-6.182-4.199-9.778-4.199-3.864 0-6.95 1.57-9.779 4.2-2.574 2.89-3.858 6.041-3.858 9.985 0 3.681 1.284 7.095 3.858 9.985 2.836 2.629 5.92 3.93 9.779 3.93 3.602 0 6.949-1.307 9.778-3.93 2.574-2.89 3.858-6.298 3.858-9.985 0-3.944-1.284-7.096-3.858-9.986z" fill="#fabc16" fill-rule="evenodd"/><path clip-rule="evenodd" d="M1062.531 87.55c-2.568-2.89-5.92-4.204-9.517-4.204-3.858 0-7.205 1.314-9.772 4.205-2.83 2.628-4.12 6.036-4.12 9.717 0 3.937 1.29 7.351 4.12 9.992 2.574 2.89 5.92 4.192 9.772 4.192 3.602 0 6.955-1.308 9.517-4.192 2.836-2.641 4.12-6.049 4.12-9.992-.01-3.681-1.29-7.089-4.12-9.717z" fill="#02b2e7" fill-rule="evenodd"/><path clip-rule="evenodd" d="M573.679 50.457v-7.88c-15.182-5.251-29.853-3.414-43.745 5.257-4.376 2.1-8.233 6.828-11.836 13.917l-8.75 20.226c-1.801 3.414-2.574 8.142-2.574 14.446 0 6.042-1.028 10.77-2.574 14.446-1.801 5.251-2.574 14.975-2.574 28.891 16.734-1.831 30.37-4.192 41.433-7.344 15.7-4.467 27.534-10.777 35.767-18.919-7.466 0-16.21 1.583-25.733 4.467l-25.733 8.665c-4.893 0-8.233-2.093-10.035-6.298-1.807-3.675-1.807-7.88-.261-12.085 4.12-6.56 6.949-10.509 8.494-11.817 4.12-3.937 9.006-5.251 14.671-3.937.773 0 1.546-1.053 2.574-2.629.773-1.837 1.54-2.628 2.574-2.628l7.205.785c2.83.523 4.63.261 5.659-.785 2.057-1.576 5.92-2.89 11.574-4.467 4.636-1.046 8.494-3.152 11.58-6.042h-51.468c-2.056 0-3.34-.791-4.119-2.106-.773-1.314-.773-2.89-.511-4.99.767-4.466 3.085-7.35 7.204-8.664 9.785-4.211 23.422-7.625 41.178-10.51zm7.721 28.032h4.893l-1.029-.523-3.864.523zm4.893 0l2.83.785c3.09 1.314 5.664 1.053 7.721-.785z" fill-rule="evenodd"/><path stroke-miterlimit="2.613" d="M581.4 76.72h4.893m0 0l2.83.785m-.01.006c3.09 1.314 5.664 1.052 7.721-.785m0-.006H586.29m0 0l-1.029-.524-3.864.524m0 0H529.93m0 0c-2.056 0-3.34-.791-4.12-2.106-.772-1.314-.772-2.89-.51-4.99.766-4.466 3.085-7.35 7.204-8.664 9.779-4.205 23.421-7.619 41.177-10.51m-.01.007v-7.88m0-.006c-15.182-5.252-29.853-3.414-43.745 5.257-4.375 2.1-8.233 6.828-11.835 13.917m0 0l-8.75 20.226m0 0c-1.801 3.414-2.574 8.142-2.574 14.446 0 6.042-1.028 10.77-2.574 14.446-1.801 5.251-2.574 14.975-2.574 28.891 16.734-1.831 30.37-4.192 41.433-7.344 15.7-4.467 27.534-10.777 35.767-18.919-7.466 0-16.21 1.582-25.733 4.467m0 0l-25.734 8.665m0 0c-4.892 0-8.233-2.093-10.034-6.298-1.807-3.676-1.807-7.88-.261-12.085 4.12-6.56 6.949-10.509 8.494-11.817 4.12-3.937 9.006-5.251 14.671-3.937.773 0 1.546-1.053 2.574-2.629.773-1.837 1.54-2.628 2.574-2.628m0 0l7.205.784m0 0c2.83.524 4.63.262 5.659-.784 2.057-1.576 5.92-2.89 11.573-4.467 4.637-1.046 8.495-3.152 11.58-6.042" fill="none" stroke="#000" stroke-width="12.171" stroke-linecap="round" stroke-linejoin="round"/><path clip-rule="evenodd" d="M780.345 54.967c0-1.576.767-4.728 2.574-9.195 1.801-4.204 2.574-7.356 2.574-9.194.517-1.314 1.545-3.414 3.09-5.251l3.603-5.513c2.836-4.46 3.085-8.665 1.029-12.87-2.574 7.88-7.205 19.703-14.148 35.463-6.955 15.76-11.58 27.577-14.154 35.464l-5.154 14.184c-3.085 4.99-7.204 6.571-12.863 4.204-14.665-6.042-25.99-14.707-33.45-26.268l-7.728-15.499c-3.085-5.513-5.659-7.618-7.721-5.513-7.46 7.88-12.602 19.435-14.665 35.196l-3.347 40.976c2.057 0 3.097 1.308 3.347 3.675l.517 1.844c.262.523.773.523 1.284-.262 2.063-3.413 3.864-8.141 4.892-14.451l2.319-16.022c.517-6.037 1.545-10.241 2.83-12.602 1.806-3.414 4.38-4.728 7.983-4.205 4.636 0 9.517 1.576 14.147 4.466 3.864 2.1 7.984 5.513 12.864 10.241l12.87 13.138c5.148 4.977 9.772 8.927 14.153 11.55 5.148 0 7.722-.786 7.722-2.63 0-10.508 1.54-22.331 4.631-35.463 2.057-7.88 5.653-19.703 10.8-35.463z" fill-rule="evenodd"/><path stroke-miterlimit="2.613" d="M782.919 45.779c1.801-4.205 2.574-7.357 2.574-9.195.517-1.314 1.545-3.414 3.09-5.251m0-.006l3.603-5.513m-.01 0c2.836-4.46 3.085-8.665 1.029-12.87-2.574 7.88-7.205 19.703-14.148 35.463-6.955 15.76-11.58 27.578-14.154 35.464m0-.006l-5.154 14.184m0-.006c-3.085 4.99-7.205 6.572-12.864 4.204-14.665-6.042-25.989-14.707-33.449-26.268m0 0l-7.728-15.499m0 .006c-3.085-5.513-5.659-7.618-7.722-5.513-7.46 7.88-12.602 19.436-14.665 35.196m.01 0l-3.346 40.976m0-.006c2.056 0 3.097 1.308 3.346 3.675m0 0l.518 1.844m0 0c.261.523.772.523 1.284-.262 2.062-3.413 3.864-8.141 4.892-14.451m-.01 0l2.318-16.022m0 0c.518-6.037 1.546-10.241 2.83-12.602 1.807-3.414 4.381-4.728 7.983-4.205 4.637 0 9.517 1.576 14.148 4.466 3.864 2.1 7.983 5.513 12.864 10.241m0 0l12.87 13.138m0 0c5.147 4.977 9.772 8.927 14.153 11.55 5.148 0 7.722-.786 7.722-2.63 0-10.508 1.54-22.331 4.63-35.463 2.063-7.88 5.666-19.697 10.808-35.457 0-1.576.766-4.728 2.573-9.194" fill="none" stroke="#000" stroke-width="12.171" stroke-linecap="round" stroke-linejoin="round"/><path clip-rule="evenodd" d="M988.455 89.883c2.83-14.707-.779-27.06-10.296-36.771-12.352-9.456-24.45-12.87-36.023-10.51l-21.62-2.366c-8.233-1.053-14.92-1.053-19.557-.262 2.063 10.77.773 23.379-4.375 37.301l-13.637 33.62c-3.346 6.298-4.12 12.87-2.574 19.167l5.148 17.604h5.148v-15.76c0-1.046.517-1.844 1.546-2.105l3.602-.523c7.466-3.153 20.33-6.298 38.597-9.724 16.472-2.89 29.336-6.56 38.603-11.288 4.12-2.89 7.467-6.036 10.546-9.2 3.09-3.67 4.892-6.822 4.892-9.183zM971.721 64.4c5.41 4.467 8.75 11.032 10.29 20.227-2.057 7.88-9 13.66-20.841 17.342l-15.7 3.931c-6.687 1.582-11.835 3.152-15.431 4.728-2.574 0-5.148-2.105-8.239-6.572-1.54-2.093-3.085-3.413-4.625-3.675-1.29 0-2.835.523-4.892 1.582l-6.182 2.367-8.495-.274 9.261-24.687c3.347-9.979 5.665-18.382 6.95-24.686 4.375 1.576 11.068 2.36 19.301 2.36l20.841.786c7.734.79 13.649 3.158 17.762 6.571z" fill-rule="evenodd"/><path stroke-miterlimit="2.613" d="M978.16 53.106c-12.353-9.456-24.45-12.87-36.024-10.51m0 .007l-21.62-2.367m0 0c-8.233-1.053-14.92-1.053-19.557-.262 2.063 10.77.773 23.379-4.375 37.301m0-.006l-13.637 33.62m0 .006c-3.346 6.298-4.12 12.87-2.574 19.167m0 0l5.148 17.604h5.148v-15.76m0 0c0-1.046.517-1.844 1.546-2.105m0 0l3.602-.523m-.01 0c7.466-3.153 20.33-6.298 38.597-9.724 16.472-2.89 29.336-6.56 38.603-11.288 4.12-2.89 7.467-6.036 10.546-9.2 3.097-3.676 4.898-6.822 4.898-9.189 2.83-14.707-.78-27.06-10.296-36.771" fill="none" stroke="#000" stroke-width="12.171" stroke-linecap="round" stroke-linejoin="round"/><path clip-rule="evenodd" d="M1167.46 49.25l-.778-7.618h-7.728c-9 7.095-19.296 14.184-30.875 21.018-22.387 9.188-32.677 18.912-30.876 28.891 1.802 4.199 5.148 7.095 10.035 8.403l15.954.524 18.53-1.838 17.232.791c1.296 0 2.069.523 2.836 1.308l2.318 3.943c1.028 2.106.773 4.205-.262 6.298l-2.312 4.205c-6.182 5.252-13.643 9.724-22.131 13.393-8.24 3.943-16.21 6.298-24.194 7.619-3.347 3.675-5.148 7.095-5.148 10.508 4.375-3.675 10.545-7.356 18.79-10.77l21.876-7.88c8.227-3.414 14.403-6.834 18.778-10.509 5.41-4.728 9.006-10.77 10.035-18.127-6.943-3.943-16.722-6.049-28.557-5.52l-30.626.263c-2.05-1.047-3.085-3.152-3.085-6.566l.51-6.566c16.217-13.131 31.655-21.802 46.32-26.269 2.324-1.034 3.359-2.872 3.359-5.5z" fill-rule="evenodd"/><path stroke-miterlimit="2.613" d="M1166.682 41.632h-7.728m0 0c-9 7.095-19.296 14.184-30.875 21.018-22.387 9.188-32.677 18.912-30.876 28.891 1.802 4.199 5.148 7.095 10.035 8.403m0 0l15.954.524 18.53-1.838 17.232.791m0 0c1.296 0 2.069.523 2.836 1.308m0 0l2.318 3.943m0 .006c1.028 2.106.773 4.205-.262 6.298m0 0l-2.312 4.205m0 0c-6.182 5.252-13.643 9.724-22.131 13.393-8.24 3.943-16.21 6.298-24.194 7.619-3.347 3.675-5.148 7.095-5.148 10.508 4.375-3.675 10.545-7.356 18.79-10.77m.01 0l21.876-7.88m0 0c8.227-3.414 14.403-6.834 18.778-10.509 5.41-4.728 9.006-10.77 10.035-18.127-6.943-3.943-16.722-6.049-28.557-5.52m0 .013l-30.626.262m-.01 0c-2.05-1.047-3.085-3.152-3.085-6.566m.01-.006l.51-6.566m-.01 0c16.217-13.131 31.655-21.802 46.32-26.269 2.318-1.046 3.353-2.89 3.353-5.513m.01 0l-.78-7.618" fill="none" stroke="#000" stroke-width="12.171" stroke-linecap="round" stroke-linejoin="round"/><path clip-rule="evenodd" d="M398.818 64.77c3.341-11.555 3.858-22.064 1.54-31.258h-5.148c-5.142 21.017-11.063 52.532-18.012 94.567 0 1.831 2.574 2.616 7.722 2.616.511-2.89 1.029-9.188.511-18.644 0-8.403.512-14.44 2.057-18.121z" fill-rule="evenodd"/><path stroke-miterlimit="2.613" d="M400.364 33.512h-5.148m-.01 0c-5.142 21.017-11.062 52.532-18.012 94.567 0 1.831 2.574 2.616 7.722 2.616.511-2.89 1.029-9.188.511-18.644 0-8.403.512-14.44 2.057-18.121m.01 0l11.324-29.16m0 0c3.341-11.555 3.858-22.064 1.54-31.258" fill="none" stroke="#000" stroke-width="12.171" stroke-linecap="round" stroke-linejoin="round"/><path clip-rule="evenodd" d="M245.348 32.16c-6.176-1.315-12.097-1.315-17.5 0-6.432 4.99-12.353 8.141-18.012 9.717-7.205 1.838-13.381.262-18.012-4.466l-2.574 10.508c-3.346 13.132-7.722 32.573-12.87 57.79-5.147 25.484-9.26 44.651-12.863 57.783-2.057 6.31-1.028 14.975 2.574 26.263l1.284-22.32c.773-9.2 1.284-16.557 2.318-22.332 2.574-16.545 8.233-28.892 16.983-36.772 4.631-3.413 11.58-4.192 20.841-2.367 5.921 1.32 13.643 3.943 22.904 7.619 18.785 7.618 34.228 9.462 46.32 5.251v-5.251c-7.46 0-15.956-1.57-25.734-4.467l-25.734-8.665-3.602-5.251c-1.028-2.1-1.545-3.937-1.545-5.251 2.312-4.467 6.431-8.666 12.863-12.87l16.983-9.98c6.177-3.937 10.035-7.618 11.836-11.032 2.057-4.728 1.028-9.98-3.085-16.021-2.313-3.682-6.943-6.31-13.375-7.887zm-3.353 23.378c-3.34 4.205-7.977 8.665-14.154 13.66-6.176 5.252-11.835 9.195-17.5 12.347-5.915 3.152-10.545 4.728-13.381 3.937 0-7.35.511-12.87 1.801-16.545 1.801-4.99 5.148-9.194 10.552-12.085 5.659-3.152 11.58-5.78 17.494-8.141 9.261-3.414 15.444-3.937 18.267-1.576 1.558 1.308.53 3.937-3.079 8.403z" fill-rule="evenodd"/><path stroke-miterlimit="2.613" d="M227.847 32.16c-6.431 4.99-12.352 8.141-18.011 9.717-7.205 1.838-13.381.262-18.012-4.466m-.006 0l-2.574 10.508m0 0c-3.346 13.132-7.722 32.573-12.87 57.79-5.147 25.484-9.26 44.651-12.863 57.783-2.057 6.31-1.028 14.975 2.574 26.263m.006 0l1.284-22.32m0 0c.773-9.2 1.284-16.557 2.318-22.332 2.574-16.545 8.233-28.892 16.984-36.772 4.63-3.413 11.58-4.192 20.84-2.367 5.922 1.32 13.643 3.943 22.905 7.619 18.784 7.618 34.228 9.462 46.319 5.251m-.006.006v-5.251m0-.006c-7.46 0-15.955-1.57-25.734-4.467m.006 0l-25.733-8.665-3.602-5.251m0 0c-1.029-2.1-1.546-3.937-1.546-5.251 2.312-4.467 6.432-8.665 12.864-12.87m0-.006l16.983-9.98m0 0c6.176-3.937 10.034-7.618 11.835-11.032 2.057-4.728 1.028-9.98-3.085-16.021-2.312-3.676-6.949-6.305-13.38-7.88-6.177-1.315-12.098-1.315-17.501 0" fill="none" stroke="#000" stroke-width="12.171" stroke-linecap="round" stroke-linejoin="round"/><path clip-rule="evenodd" d="M60.91 21.281c6.949-2.629 13.636-4.205 20.324-5.519 1.545 0 3.347-1.308 4.892-3.937 1.801-2.629 1.028-3.937-2.574-3.937-8.494-2.629-17.5-2.367-27.273.53-8.75 2.622-15.955 6.827-21.358 12.601-5.148 2.89-8.75 9.457-11.069 19.174l-2.83 12.87c-1.283 4.99-2.567 9.194-4.113 12.608l-5.92 8.136C8.676 77.22 7.904 80.64 9.187 84.054c1.546 1.576 2.574 4.205 2.574 7.88 1.029 7.095 1.284 14.969.773 23.634-.255 5.787-1.284 13.667-2.574 23.902l-3.085 24.437c-.773 9.189-1.028 17.592-.517 25.21l6.949-47.28c2.574-18.906 5.66-34.666 8.75-47.28 0-2.361 1.801-4.722 5.665-7.096 3.347-1.837 6.694-3.152 9.779-3.413 4.892-.785 10.29-2.1 15.955-3.937l14.926-6.304c5.921-2.623 10.807-4.46 14.665-5.775l4.375-1.053-49.921 3.937c-2.574 0-4.886-1.046-7.205-3.413-2.056-2.106-3.085-4.467-3.085-7.09 3.347-14.19 8.495-24.692 15.438-31.52z" fill-rule="evenodd"/><path stroke-miterlimit="2.613" d="M87.416 66.985l-49.921 3.937m0 0c-2.574 0-4.886-1.046-7.205-3.413-2.056-2.106-3.085-4.467-3.085-7.09C30.552 46.23 35.7 35.728 42.643 28.9m-.006 0l18.273-7.618m0 0c6.95-2.629 13.636-4.205 20.324-5.519 1.545 0 3.347-1.308 4.892-3.937 1.801-2.629 1.029-3.937-2.574-3.937-8.494-2.629-17.5-2.367-27.273.53-8.75 2.622-15.955 6.827-21.358 12.601-5.148 2.89-8.75 9.457-11.069 19.174m0 0l-2.83 12.87m0 0c-1.283 4.99-2.567 9.194-4.113 12.608m0 .006l-5.92 8.136m0 0c-2.313 3.413-3.085 6.833-1.801 10.247 1.545 1.576 2.574 4.205 2.574 7.88 1.028 7.095 1.283 14.969.772 23.634-.255 5.787-1.284 13.667-2.574 23.902m0 0l-3.085 24.437m-.006 0c-.773 9.189-1.028 17.592-.517 25.21m0-.006l6.949-47.28m.006.006c2.574-18.906 5.66-34.666 8.75-47.28 0-2.361 1.801-4.722 5.665-7.096 3.347-1.837 6.694-3.152 9.779-3.413 4.892-.785 10.29-2.1 15.955-3.937m-.006 0l14.926-6.304m-.006 0c5.921-2.623 10.807-4.46 14.665-5.775m0 0l4.375-1.053m11.586-1.308l-11.58 1.308" fill="none" stroke="#000" stroke-width="12.171" stroke-linecap="round" stroke-linejoin="round"/></svg>