<svg xmlns="http://www.w3.org/2000/svg" viewBox="0 0 358.107 444.193">
  <defs>
    <style>
      .cls-1 {
        fill: #19393b;
      }

      .cls-2 {
        fill: #242b2e;
      }

      .cls-3 {
        fill: #4f5b5d;
      }

      .cls-4 {
        fill: #158e7f;
      }

      .cls-5, .cls-6 {
        fill: none;
        stroke-miterlimit: 10;
      }

      .cls-5 {
        stroke: #242b2e;
        stroke-width: 8.403px;
      }

      .cls-6 {
        stroke: #010101;
      }

      .cls-7 {
        fill: #3ab5a4;
      }
    </style>
  </defs>
  <g id="Layer_2" data-name="Layer 2">
    <g id="Layer_2-2" data-name="Layer 2">
      <g id="sapir_logo" data-name="sapir logo">
        <g>
          <path class="cls-1" d="M73.121,408.23v25.115H62.273V407.812c0-4.849.523-10.255-5.72-10.255H51.844v-8.442h8.3C72.179,389.115,73.121,397,73.121,408.23Z"/>
          <path class="cls-1" d="M92.413,389.115v24.591H81.565V389.115Z"/>
          <path class="cls-1" d="M128.484,406.207v10.115c0,11.965-3.733,17.023-13.534,17.023h-13.6v-8.477h12.313c3.488,0,4.779-2.266,4.779-9.034v-9.871c0-7.012-1.361-8.825-4.884-8.825h-3.418v16.394h-8.86V389.115H114.95C124.751,389.115,128.484,394.242,128.484,406.207Z"/>
          <path class="cls-1" d="M162.912,389.115s.175,18,0,28.428c-.244,9.907-4.709,15.8-15.557,15.8H137.8l-3.07-44.23Zm-9.383,7.57h-8.65l2.128,29.16h1.29c3.942,0,5.232-3.942,5.232-11.964Z"/>
          <path class="cls-1" d="M209.132,444.193H198.318V397.557H186.633v-8.442h22.5Z"/>
          <path class="cls-1" d="M238.155,408.23v25.115H227.306V407.812c0-4.849.523-10.255-5.72-10.255h-4.709v-8.442h8.3C237.213,389.115,238.155,397,238.155,408.23Z"/>
          <path class="cls-1" d="M273.073,389.115V411.16c0,11.755-.174,16.29-14.511,20.127-8.2,2.233-12.766,3.174-12.766,3.174l-1.779-7.709,5.581-1.6-4.116-36.033h9.732l3.418,33.9c2.825-.837,4.605-.837,4.605-7.779V389.115Z"/>
          <path class="cls-1" d="M295.154,424.206h4.6v-19.22c0-4.953-.7-7.325-4.779-7.429h-1.6l-4.57,35.788h-9.7l5.2-35.091h-3.837v-9.139h16.394c9.8,0,12.558,4.465,12.453,18.87v25.36H295.154Z"/>
        </g>
        <circle class="cls-2" cx="179.018" cy="178.941" r="161.699"/>
        <g>
          <polygon class="cls-3" points="259.962 146.687 259.962 126.254 257.412 126.254 251.904 128.497 252.482 130.979 257.004 129.041 257.072 129.041 257.072 146.687 259.962 146.687"/>
          <path class="cls-3" d="M256.158,204.867a7.457,7.457,0,0,0,1.616-5.219v-7.311a7.459,7.459,0,0,0-1.616-5.219,7.118,7.118,0,0,0-9.349,0,7.459,7.459,0,0,0-1.615,5.219v7.311a7.457,7.457,0,0,0,1.615,5.219,7.115,7.115,0,0,0,9.349,0Zm-8.074-4.948v-7.853q0-4.251,3.4-4.25t3.4,4.25v7.853q0,4.251-3.4,4.25T248.084,199.919Z"/>
          <path class="cls-3" d="M258.536,295.756a6.046,6.046,0,0,0,4.675-1.751,7.456,7.456,0,0,0,1.615-5.219v-7.31a7.457,7.457,0,0,0-1.615-5.219,7.116,7.116,0,0,0-9.35,0,7.457,7.457,0,0,0-1.615,5.219v7.31a7.456,7.456,0,0,0,1.615,5.219A6.046,6.046,0,0,0,258.536,295.756Zm-3.4-14.552q0-4.251,3.4-4.25t3.4,4.25v7.854q0,4.251-3.4,4.25t-3.4-4.25Z"/>
          <polygon class="cls-3" points="260.925 235.97 260.925 215.537 258.375 215.537 252.867 217.78 253.445 220.262 257.967 218.324 258.035 218.324 258.035 235.97 260.925 235.97"/>
          <path class="cls-3" d="M240.752,147.1a6.046,6.046,0,0,0,4.675-1.751,7.462,7.462,0,0,0,1.615-5.219v-7.311a7.459,7.459,0,0,0-1.615-5.218,7.116,7.116,0,0,0-9.35,0,7.454,7.454,0,0,0-1.615,5.218v7.311a7.457,7.457,0,0,0,1.615,5.219A6.044,6.044,0,0,0,240.752,147.1Zm-3.4-14.552q0-4.251,3.4-4.25t3.4,4.25V140.4q0,4.251-3.4,4.25t-3.4-4.25Z"/>
          <path class="cls-3" d="M248.005,222.1a7.461,7.461,0,0,0-1.615-5.218,7.116,7.116,0,0,0-9.35,0,7.456,7.456,0,0,0-1.615,5.218v7.311a7.457,7.457,0,0,0,1.615,5.219,7.116,7.116,0,0,0,9.35,0,7.462,7.462,0,0,0,1.615-5.219Zm-2.89,7.582q0,4.251-3.4,4.25t-3.4-4.25v-7.853q0-4.251,3.4-4.25t3.4,4.25Z"/>
          <path class="cls-3" d="M241.311,176.857a6.044,6.044,0,0,0,4.675-1.751,7.457,7.457,0,0,0,1.615-5.219v-7.311a7.459,7.459,0,0,0-1.615-5.219,7.118,7.118,0,0,0-9.349,0,7.454,7.454,0,0,0-1.616,5.219v7.311a7.453,7.453,0,0,0,1.616,5.219A6.042,6.042,0,0,0,241.311,176.857Zm-3.4-14.552q0-4.251,3.4-4.25t3.4,4.25v7.853q0,4.251-3.4,4.25t-3.4-4.25Z"/>
          <path class="cls-3" d="M149.477,155.607a6.042,6.042,0,0,0-4.674,1.75,7.454,7.454,0,0,0-1.616,5.219v7.311a7.453,7.453,0,0,0,1.616,5.219,7.115,7.115,0,0,0,9.349,0,7.457,7.457,0,0,0,1.615-5.219v-7.311a7.459,7.459,0,0,0-1.615-5.219A6.044,6.044,0,0,0,149.477,155.607Zm3.4,14.551q0,4.251-3.4,4.25t-3.4-4.25v-7.853q0-4.251,3.4-4.25t3.4,4.25Z"/>
          <path class="cls-3" d="M256.289,157.357a7.459,7.459,0,0,0-1.615,5.219v7.311a7.457,7.457,0,0,0,1.615,5.219,7.116,7.116,0,0,0,9.35,0,7.462,7.462,0,0,0,1.615-5.219v-7.311a7.464,7.464,0,0,0-1.615-5.219,7.119,7.119,0,0,0-9.35,0Zm8.075,4.948v7.853q0,4.251-3.4,4.25t-3.4-4.25v-7.853q0-4.251,3.4-4.25T264.364,162.305Z"/>
          <path class="cls-3" d="M273.63,125.846a6.046,6.046,0,0,0-4.675,1.751,7.454,7.454,0,0,0-1.615,5.218v7.311a7.457,7.457,0,0,0,1.615,5.219,7.116,7.116,0,0,0,9.35,0,7.457,7.457,0,0,0,1.615-5.219v-7.311a7.454,7.454,0,0,0-1.615-5.218A6.046,6.046,0,0,0,273.63,125.846Zm3.4,14.551q0,4.251-3.4,4.25t-3.4-4.25v-7.853q0-4.251,3.4-4.25t3.4,4.25Z"/>
          <path class="cls-3" d="M275.81,204.867a7.457,7.457,0,0,0,1.616-5.219v-7.311a7.459,7.459,0,0,0-1.616-5.219,7.118,7.118,0,0,0-9.349,0,7.459,7.459,0,0,0-1.616,5.219v7.311a7.457,7.457,0,0,0,1.616,5.219,7.115,7.115,0,0,0,9.349,0Zm-8.074-4.948v-7.853q0-4.251,3.4-4.25t3.4,4.25v7.853q0,4.251-3.4,4.25T267.736,199.919Z"/>
          <polygon class="cls-3" points="272.116 158.258 272.694 160.74 277.216 158.802 277.284 158.802 277.284 176.448 280.174 176.448 280.174 156.015 277.623 156.015 272.116 158.258"/>
          <polygon class="cls-3" points="228.685 277.701 228.753 277.701 228.753 295.348 231.643 295.348 231.643 274.914 229.092 274.914 223.585 277.157 224.163 279.64 228.685 277.701"/>
          <path class="cls-3" d="M173.129,295.756a6.042,6.042,0,0,0,4.674-1.751,7.456,7.456,0,0,0,1.616-5.219v-7.31a7.457,7.457,0,0,0-1.616-5.219,7.115,7.115,0,0,0-9.349,0,7.457,7.457,0,0,0-1.616,5.219v7.31a7.456,7.456,0,0,0,1.616,5.219A6.043,6.043,0,0,0,173.129,295.756Zm-3.4-14.552q0-4.251,3.4-4.25t3.4,4.25v7.854q0,4.251-3.4,4.25t-3.4-4.25Z"/>
          <path class="cls-3" d="M188.83,266.067a6.046,6.046,0,0,0,4.675-1.751,7.456,7.456,0,0,0,1.615-5.219v-7.31a7.457,7.457,0,0,0-1.615-5.219,7.116,7.116,0,0,0-9.35,0,7.457,7.457,0,0,0-1.615,5.219v7.31a7.456,7.456,0,0,0,1.615,5.219A6.046,6.046,0,0,0,188.83,266.067Zm-3.4-14.552q0-4.251,3.4-4.25t3.4,4.25v7.854q0,4.251-3.4,4.25t-3.4-4.25Z"/>
          <path class="cls-3" d="M176.715,325.578a6.046,6.046,0,0,0,4.675-1.751,7.456,7.456,0,0,0,1.615-5.219V311.3a7.456,7.456,0,0,0-1.615-5.218,7.116,7.116,0,0,0-9.35,0,7.456,7.456,0,0,0-1.615,5.218v7.311a7.456,7.456,0,0,0,1.615,5.219A6.046,6.046,0,0,0,176.715,325.578Zm-3.4-14.552q0-4.251,3.4-4.25t3.4,4.25v7.853q0,4.251-3.4,4.25t-3.4-4.25Z"/>
          <path class="cls-3" d="M169.178,266.067a6.046,6.046,0,0,0,4.675-1.751,7.46,7.46,0,0,0,1.615-5.219v-7.31a7.462,7.462,0,0,0-1.615-5.219,7.116,7.116,0,0,0-9.35,0,7.457,7.457,0,0,0-1.615,5.219v7.31a7.456,7.456,0,0,0,1.615,5.219A6.044,6.044,0,0,0,169.178,266.067Zm-3.4-14.552q0-4.251,3.4-4.25t3.4,4.25v7.854q0,4.251-3.4,4.25t-3.4-4.25Z"/>
          <polygon class="cls-3" points="156.503 277.701 156.57 277.701 156.57 295.348 159.461 295.348 159.461 274.914 156.91 274.914 151.402 277.157 151.981 279.64 156.503 277.701"/>
          <path class="cls-3" d="M192.78,295.756a6.044,6.044,0,0,0,4.675-1.751,7.456,7.456,0,0,0,1.615-5.219v-7.31a7.457,7.457,0,0,0-1.615-5.219,7.115,7.115,0,0,0-9.349,0,7.453,7.453,0,0,0-1.616,5.219v7.31a7.451,7.451,0,0,0,1.616,5.219A6.042,6.042,0,0,0,192.78,295.756Zm-3.4-14.552q0-4.251,3.4-4.25t3.4,4.25v7.854q0,4.251-3.4,4.25t-3.4-4.25Z"/>
          <path class="cls-3" d="M216.019,325.578a6.043,6.043,0,0,0,4.675-1.751,7.456,7.456,0,0,0,1.616-5.219V311.3a7.456,7.456,0,0,0-1.616-5.218,7.115,7.115,0,0,0-9.349,0,7.456,7.456,0,0,0-1.616,5.218v7.311a7.456,7.456,0,0,0,1.616,5.219A6.042,6.042,0,0,0,216.019,325.578Zm-3.4-14.552q0-4.251,3.4-4.25t3.4,4.25v7.853q0,4.251-3.4,4.25t-3.4-4.25Z"/>
          <polygon class="cls-3" points="252.674 68.975 253.252 71.457 257.774 69.519 257.842 69.519 257.842 87.165 260.732 87.165 260.732 66.732 258.181 66.732 252.674 68.975"/>
          <path class="cls-3" d="M228,259.1v-7.31a7.457,7.457,0,0,0-1.615-5.219,7.116,7.116,0,0,0-9.35,0,7.457,7.457,0,0,0-1.615,5.219v7.31a7.456,7.456,0,0,0,1.615,5.219,7.116,7.116,0,0,0,9.35,0A7.456,7.456,0,0,0,228,259.1Zm-2.89.272q0,4.251-3.4,4.25t-3.4-4.25v-7.854q0-4.251,3.4-4.25t3.4,4.25Z"/>
          <path class="cls-3" d="M196.367,325.578a6.046,6.046,0,0,0,4.675-1.751,7.456,7.456,0,0,0,1.615-5.219V311.3a7.456,7.456,0,0,0-1.615-5.218,7.116,7.116,0,0,0-9.35,0,7.456,7.456,0,0,0-1.615,5.218v7.311a7.456,7.456,0,0,0,1.615,5.219A6.046,6.046,0,0,0,196.367,325.578Zm-3.4-14.552q0-4.251,3.4-4.25t3.4,4.25v7.853q0,4.251-3.4,4.25t-3.4-4.25Z"/>
          <path class="cls-3" d="M212.433,295.756a6.046,6.046,0,0,0,4.675-1.751,7.46,7.46,0,0,0,1.615-5.219v-7.31a7.462,7.462,0,0,0-1.615-5.219,7.116,7.116,0,0,0-9.35,0,7.457,7.457,0,0,0-1.615,5.219v7.31a7.456,7.456,0,0,0,1.615,5.219A6.044,6.044,0,0,0,212.433,295.756Zm-3.4-14.552q0-4.251,3.4-4.25t3.4,4.25v7.854q0,4.251-3.4,4.25t-3.4-4.25Z"/>
          <path class="cls-3" d="M267.3,259.1v-7.31a7.457,7.457,0,0,0-1.615-5.219,7.116,7.116,0,0,0-9.35,0,7.457,7.457,0,0,0-1.615,5.219v7.31a7.456,7.456,0,0,0,1.615,5.219,7.116,7.116,0,0,0,9.35,0A7.456,7.456,0,0,0,267.3,259.1Zm-2.89.272q0,4.251-3.4,4.25t-3.4-4.25v-7.854q0-4.251,3.4-4.25t3.4,4.25Z"/>
          <path class="cls-3" d="M150.669,127.6a7.454,7.454,0,0,0-1.615,5.218v7.311a7.457,7.457,0,0,0,1.615,5.219,7.116,7.116,0,0,0,9.35,0,7.462,7.462,0,0,0,1.615-5.219v-7.311a7.459,7.459,0,0,0-1.615-5.218,7.116,7.116,0,0,0-9.35,0Zm8.075,4.947V140.4q0,4.251-3.4,4.25t-3.4-4.25v-7.853q0-4.251,3.4-4.25T158.744,132.544Z"/>
          <path class="cls-3" d="M142.658,110.365a7.457,7.457,0,0,0,1.615,5.219,7.116,7.116,0,0,0,9.35,0,7.462,7.462,0,0,0,1.615-5.219v-7.311a7.459,7.459,0,0,0-1.615-5.218,7.116,7.116,0,0,0-9.35,0,7.454,7.454,0,0,0-1.615,5.218Zm2.89-7.582q0-4.251,3.4-4.25t3.4,4.25v7.853q0,4.251-3.4,4.25t-3.4-4.25Z"/>
          <path class="cls-3" d="M181.449,36.563a6.042,6.042,0,0,0-4.674,1.751,7.456,7.456,0,0,0-1.616,5.218v7.311a7.457,7.457,0,0,0,1.616,5.219,7.115,7.115,0,0,0,9.349,0,7.457,7.457,0,0,0,1.616-5.219V43.532a7.456,7.456,0,0,0-1.616-5.218A6.043,6.043,0,0,0,181.449,36.563Zm3.4,14.551q0,4.251-3.4,4.25t-3.4-4.25V43.261q0-4.251,3.4-4.25t3.4,4.25Z"/>
          <polygon class="cls-3" points="133.618 128.497 134.196 130.979 138.718 129.041 138.786 129.041 138.786 146.687 141.676 146.687 141.676 126.254 139.126 126.254 133.618 128.497"/>
          <path class="cls-3" d="M169.34,66.324a6.044,6.044,0,0,0-4.675,1.751,7.456,7.456,0,0,0-1.615,5.218V80.6a7.457,7.457,0,0,0,1.615,5.219,7.115,7.115,0,0,0,9.349,0A7.457,7.457,0,0,0,175.63,80.6V73.293a7.456,7.456,0,0,0-1.616-5.218A6.042,6.042,0,0,0,169.34,66.324Zm3.4,14.551q0,4.251-3.4,4.25t-3.4-4.25V73.022q0-4.251,3.4-4.25t3.4,4.25Z"/>
          <polygon class="cls-3" points="159.724 39.214 160.302 41.696 164.824 39.758 164.892 39.758 164.892 57.404 167.782 57.404 167.782 36.971 165.232 36.971 159.724 39.214"/>
          <polygon class="cls-3" points="138.502 190.501 143.024 188.563 143.092 188.563 143.092 206.209 145.982 206.209 145.982 185.776 143.431 185.776 137.924 188.019 138.502 190.501"/>
          <path class="cls-3" d="M117.791,127.6a7.454,7.454,0,0,0-1.615,5.218v7.311a7.457,7.457,0,0,0,1.615,5.219,7.116,7.116,0,0,0,9.35,0,7.457,7.457,0,0,0,1.615-5.219v-7.311a7.454,7.454,0,0,0-1.615-5.218,7.116,7.116,0,0,0-9.35,0Zm8.075,4.947V140.4q0,4.251-3.4,4.25t-3.4-4.25v-7.853q0-4.251,3.4-4.25T125.866,132.544Z"/>
          <path class="cls-3" d="M135.346,36.563a6.044,6.044,0,0,0-4.675,1.751,7.456,7.456,0,0,0-1.615,5.218v7.311a7.457,7.457,0,0,0,1.615,5.219,7.116,7.116,0,0,0,9.35,0,7.462,7.462,0,0,0,1.615-5.219V43.532a7.461,7.461,0,0,0-1.615-5.218A6.046,6.046,0,0,0,135.346,36.563Zm3.4,14.551q0,4.251-3.4,4.25t-3.4-4.25V43.261q0-4.251,3.4-4.25t3.4,4.25Z"/>
          <path class="cls-3" d="M115.694,36.563a6.044,6.044,0,0,0-4.675,1.751,7.456,7.456,0,0,0-1.615,5.218v7.311a7.457,7.457,0,0,0,1.615,5.219,7.115,7.115,0,0,0,9.349,0,7.457,7.457,0,0,0,1.616-5.219V43.532a7.456,7.456,0,0,0-1.616-5.218A6.042,6.042,0,0,0,115.694,36.563Zm3.4,14.551q0,4.251-3.4,4.25t-3.4-4.25V43.261q0-4.251,3.4-4.25t3.4,4.25Z"/>
          <polygon class="cls-3" points="248.312 101.218 252.834 99.28 252.902 99.28 252.902 116.926 255.792 116.926 255.792 96.493 253.242 96.493 247.734 98.736 248.312 101.218"/>
          <path class="cls-3" d="M123.745,73.293V80.6a7.453,7.453,0,0,0,1.616,5.219,7.115,7.115,0,0,0,9.349,0,7.457,7.457,0,0,0,1.615-5.219V73.293a7.456,7.456,0,0,0-1.615-5.218,7.115,7.115,0,0,0-9.349,0A7.452,7.452,0,0,0,123.745,73.293Zm2.891-.271q0-4.251,3.4-4.25t3.4,4.25v7.853q0,4.251-3.4,4.25t-3.4-4.25Z"/>
          <path class="cls-3" d="M123.005,110.365a7.453,7.453,0,0,0,1.616,5.219,7.115,7.115,0,0,0,9.349,0,7.457,7.457,0,0,0,1.615-5.219v-7.311a7.454,7.454,0,0,0-1.615-5.218,7.115,7.115,0,0,0-9.349,0,7.45,7.45,0,0,0-1.616,5.218Zm2.891-7.582q0-4.251,3.4-4.25t3.4,4.25v7.853q0,4.251-3.4,4.25t-3.4-4.25Z"/>
          <path class="cls-3" d="M227.93,96.085a6.044,6.044,0,0,0-4.675,1.751,7.454,7.454,0,0,0-1.615,5.218v7.311a7.457,7.457,0,0,0,1.615,5.219,7.116,7.116,0,0,0,9.35,0,7.462,7.462,0,0,0,1.615-5.219v-7.311a7.459,7.459,0,0,0-1.615-5.218A6.046,6.046,0,0,0,227.93,96.085Zm3.4,14.551q0,4.251-3.4,4.25t-3.4-4.25v-7.853q0-4.251,3.4-4.25t3.4,4.25Z"/>
          <polygon class="cls-3" points="230.336 190.501 234.858 188.563 234.926 188.563 234.926 206.209 237.816 206.209 237.816 185.776 235.265 185.776 229.758 188.019 230.336 190.501"/>
          <path class="cls-3" d="M221.869,66.324a6.042,6.042,0,0,0-4.674,1.751,7.452,7.452,0,0,0-1.616,5.218V80.6a7.453,7.453,0,0,0,1.616,5.219,7.115,7.115,0,0,0,9.349,0,7.457,7.457,0,0,0,1.615-5.219V73.293a7.456,7.456,0,0,0-1.615-5.218A6.044,6.044,0,0,0,221.869,66.324Zm3.4,14.551q0,4.251-3.4,4.25t-3.4-4.25V73.022q0-4.251,3.4-4.25t3.4,4.25Z"/>
          <polygon class="cls-3" points="234.239 39.214 234.817 41.696 239.339 39.758 239.407 39.758 239.407 57.404 242.297 57.404 242.297 36.971 239.747 36.971 234.239 39.214"/>
          <path class="cls-3" d="M241.522,66.324a6.044,6.044,0,0,0-4.675,1.751,7.456,7.456,0,0,0-1.615,5.218V80.6a7.457,7.457,0,0,0,1.615,5.219,7.116,7.116,0,0,0,9.35,0,7.462,7.462,0,0,0,1.615-5.219V73.293a7.461,7.461,0,0,0-1.615-5.218A6.046,6.046,0,0,0,241.522,66.324Zm3.4,14.551q0,4.251-3.4,4.25t-3.4-4.25V73.022q0-4.251,3.4-4.25t3.4,4.25Z"/>
          <polygon class="cls-3" points="180.491 68.975 181.07 71.457 185.592 69.519 185.659 69.519 185.659 87.165 188.55 87.165 188.55 66.732 185.999 66.732 180.491 68.975"/>
          <path class="cls-3" d="M188.761,103.054v7.311a7.457,7.457,0,0,0,1.615,5.219,7.116,7.116,0,0,0,9.35,0,7.457,7.457,0,0,0,1.615-5.219v-7.311a7.454,7.454,0,0,0-1.615-5.218,7.116,7.116,0,0,0-9.35,0A7.454,7.454,0,0,0,188.761,103.054Zm2.89-.271q0-4.251,3.4-4.25t3.4,4.25v7.853q0,4.251-3.4,4.25t-3.4-4.25Z"/>
          <path class="cls-3" d="M188.358,140.126a7.457,7.457,0,0,0,1.615,5.219,7.116,7.116,0,0,0,9.35,0,7.457,7.457,0,0,0,1.615-5.219v-7.311a7.454,7.454,0,0,0-1.615-5.218,7.116,7.116,0,0,0-9.35,0,7.454,7.454,0,0,0-1.615,5.218Zm2.89-7.582q0-4.251,3.4-4.25t3.4,4.25V140.4q0,4.251-3.4,4.25t-3.4-4.25Z"/>
          <path class="cls-3" d="M202.218,66.324a6.044,6.044,0,0,0-4.675,1.751,7.456,7.456,0,0,0-1.615,5.218V80.6a7.457,7.457,0,0,0,1.615,5.219,7.115,7.115,0,0,0,9.349,0,7.457,7.457,0,0,0,1.616-5.219V73.293a7.456,7.456,0,0,0-1.616-5.218A6.042,6.042,0,0,0,202.218,66.324Zm3.4,14.551q0,4.251-3.4,4.25t-3.4-4.25V73.022q0-4.251,3.4-4.25t3.4,4.25Z"/>
          <polygon class="cls-3" points="192.602 39.214 193.18 41.696 197.702 39.758 197.77 39.758 197.77 57.404 200.66 57.404 200.66 36.971 198.11 36.971 192.602 39.214"/>
          <path class="cls-3" d="M214.328,36.563a6.044,6.044,0,0,0-4.675,1.751,7.456,7.456,0,0,0-1.615,5.218v7.311a7.457,7.457,0,0,0,1.615,5.219,7.116,7.116,0,0,0,9.35,0,7.462,7.462,0,0,0,1.615-5.219V43.532A7.461,7.461,0,0,0,219,38.314,6.046,6.046,0,0,0,214.328,36.563Zm3.4,14.551q0,4.251-3.4,4.25t-3.4-4.25V43.261q0-4.251,3.4-4.25t3.4,4.25Z"/>
          <polygon class="cls-3" points="168.158 116.926 168.158 96.493 165.607 96.493 160.1 98.736 160.678 101.218 165.2 99.28 165.268 99.28 165.268 116.926 168.158 116.926"/>
          <polygon class="cls-3" points="116.206 265.659 116.206 245.225 113.656 245.225 108.148 247.469 108.726 249.951 113.248 248.013 113.316 248.013 113.316 265.659 116.206 265.659"/>
          <path class="cls-3" d="M94.656,288.786a7.451,7.451,0,0,0,1.616,5.219,7.115,7.115,0,0,0,9.349,0,7.456,7.456,0,0,0,1.615-5.219v-7.31a7.457,7.457,0,0,0-1.615-5.219,7.115,7.115,0,0,0-9.349,0,7.453,7.453,0,0,0-1.616,5.219Zm2.89-7.582q0-4.251,3.4-4.25t3.4,4.25v7.854q0,4.251-3.4,4.25t-3.4-4.25Z"/>
          <polygon class="cls-3" points="104.302 206.209 104.302 185.776 101.752 185.776 96.244 188.019 96.822 190.501 101.344 188.563 101.412 188.563 101.412 206.209 104.302 206.209"/>
          <polygon class="cls-3" points="108.1 158.258 108.678 160.74 113.2 158.802 113.267 158.802 113.267 176.448 116.158 176.448 116.158 156.015 113.607 156.015 108.1 158.258"/>
          <polygon class="cls-3" points="235.229 325.17 235.229 304.736 232.679 304.736 227.171 306.979 227.749 309.461 232.271 307.523 232.339 307.523 232.339 325.17 235.229 325.17"/>
          <polygon class="cls-3" points="208.04 265.659 208.04 245.225 205.49 245.225 199.982 247.469 200.56 249.951 205.082 248.013 205.15 248.013 205.15 265.659 208.04 265.659"/>
          <path class="cls-3" d="M129.826,155.607a6.044,6.044,0,0,0-4.675,1.75,7.459,7.459,0,0,0-1.615,5.219v7.311a7.457,7.457,0,0,0,1.615,5.219,7.115,7.115,0,0,0,9.349,0,7.457,7.457,0,0,0,1.616-5.219v-7.311a7.459,7.459,0,0,0-1.616-5.219A6.042,6.042,0,0,0,129.826,155.607Zm3.4,14.551q0,4.251-3.4,4.25t-3.4-4.25v-7.853q0-4.251,3.4-4.25t3.4,4.25Z"/>
          <path class="cls-3" d="M110.067,229.409V222.1a7.461,7.461,0,0,0-1.615-5.218,7.116,7.116,0,0,0-9.35,0,7.456,7.456,0,0,0-1.615,5.218v7.311a7.457,7.457,0,0,0,1.615,5.219,7.116,7.116,0,0,0,9.35,0A7.462,7.462,0,0,0,110.067,229.409Zm-2.89.271q0,4.251-3.4,4.25t-3.4-4.25v-7.853q0-4.251,3.4-4.25t3.4,4.25Z"/>
          <path class="cls-3" d="M118.754,216.88a7.456,7.456,0,0,0-1.615,5.218v7.311a7.457,7.457,0,0,0,1.615,5.219,7.116,7.116,0,0,0,9.35,0,7.457,7.457,0,0,0,1.615-5.219V222.1a7.456,7.456,0,0,0-1.615-5.218,7.116,7.116,0,0,0-9.35,0Zm8.075,4.947v7.853q0,4.251-3.4,4.25t-3.4-4.25v-7.853q0-4.251,3.4-4.25T126.829,221.827Z"/>
          <path class="cls-3" d="M117.97,185.368a6.044,6.044,0,0,0-4.675,1.75,7.459,7.459,0,0,0-1.615,5.219v7.311a7.457,7.457,0,0,0,1.615,5.219,7.116,7.116,0,0,0,9.35,0,7.462,7.462,0,0,0,1.615-5.219v-7.311a7.464,7.464,0,0,0-1.615-5.219A6.045,6.045,0,0,0,117.97,185.368Zm3.4,14.551q0,4.251-3.4,4.25t-3.4-4.25v-7.853q0-4.251,3.4-4.25t3.4,4.25Z"/>
          <polygon class="cls-3" points="142.639 235.97 142.639 215.537 140.089 215.537 134.581 217.78 135.159 220.262 139.681 218.324 139.749 218.324 139.749 235.97 142.639 235.97"/>
          <path class="cls-3" d="M247.65,259.1v-7.31a7.462,7.462,0,0,0-1.615-5.219,7.116,7.116,0,0,0-9.35,0,7.457,7.457,0,0,0-1.615,5.219v7.31a7.456,7.456,0,0,0,1.615,5.219,7.116,7.116,0,0,0,9.35,0A7.46,7.46,0,0,0,247.65,259.1Zm-2.89.272q0,4.251-3.4,4.25t-3.4-4.25v-7.854q0-4.251,3.4-4.25t3.4,4.25Z"/>
          <polygon class="cls-3" points="163.047 325.17 163.047 304.736 160.497 304.736 154.989 306.979 155.567 309.461 160.089 307.523 160.157 307.523 160.157 325.17 163.047 325.17"/>
          <path class="cls-3" d="M143.4,73.293V80.6a7.457,7.457,0,0,0,1.615,5.219,7.116,7.116,0,0,0,9.35,0,7.457,7.457,0,0,0,1.615-5.219V73.293a7.456,7.456,0,0,0-1.615-5.218,7.116,7.116,0,0,0-9.35,0A7.456,7.456,0,0,0,143.4,73.293Zm2.89-.271q0-4.251,3.4-4.25t3.4,4.25v7.853q0,4.251-3.4,4.25t-3.4-4.25Z"/>
          <path class="cls-3" d="M151.632,216.88a7.456,7.456,0,0,0-1.615,5.218v7.311a7.457,7.457,0,0,0,1.615,5.219,7.116,7.116,0,0,0,9.35,0,7.457,7.457,0,0,0,1.615-5.219V222.1a7.456,7.456,0,0,0-1.615-5.218,7.116,7.116,0,0,0-9.35,0Zm8.075,4.947v7.853q0,4.251-3.4,4.25t-3.4-4.25v-7.853q0-4.251,3.4-4.25T159.707,221.827Z"/>
          <polygon class="cls-3" points="154.556 57.404 154.556 36.971 152.006 36.971 146.498 39.214 147.076 41.696 151.598 39.758 151.666 39.758 151.666 57.404 154.556 57.404"/>
          <path class="cls-3" d="M249.675,43.532v7.311a7.457,7.457,0,0,0,1.615,5.219,7.116,7.116,0,0,0,9.35,0,7.457,7.457,0,0,0,1.615-5.219V43.532a9.245,9.245,0,0,0-.666-3.66c-1.9-1.135-3.82-2.24-5.769-3.3a5.982,5.982,0,0,0-4.53,1.74A7.456,7.456,0,0,0,249.675,43.532Zm2.89-.271q0-4.251,3.4-4.25t3.4,4.25v7.853q0,4.251-3.4,4.25t-3.4-4.25Z"/>
          <path class="cls-3" d="M245.905,304.736l-5.508,2.243.579,2.482,4.522-1.938h.067V325.17h2.659l.232-.109V304.736Z"/>
          <path class="cls-3" d="M156.318,334.558,150.81,336.8l.4,1.695q.726.125,1.456.242l3.249-1.393h.068v1.892c.961.135,1.923.266,2.89.384v-5.063Z"/>
          <path class="cls-3" d="M280.883,222.1a7.456,7.456,0,0,0-1.615-5.218,7.115,7.115,0,0,0-9.349,0A7.452,7.452,0,0,0,268.3,222.1v7.311a7.453,7.453,0,0,0,1.616,5.219,7.115,7.115,0,0,0,9.349,0,7.457,7.457,0,0,0,1.615-5.219Zm-2.89,7.582q0,4.251-3.4,4.25t-3.4-4.25v-7.853q0-4.251,3.4-4.25t3.4,4.25Z"/>
          <polygon class="cls-3" points="280.222 245.225 277.672 245.225 272.164 247.469 272.742 249.951 277.264 248.013 277.332 248.013 277.332 265.659 280.222 265.659 280.222 245.225"/>
          <polygon class="cls-3" points="273.958 87.165 273.958 66.732 271.407 66.732 265.9 68.975 266.478 71.457 271 69.519 271.068 69.519 271.068 87.165 273.958 87.165"/>
          <polygon class="cls-3" points="277.747 295.348 277.747 274.914 275.196 274.914 269.689 277.157 270.267 279.64 274.789 277.701 274.857 277.701 274.857 295.348 277.747 295.348"/>
          <path class="cls-3" d="M263.17,103.054v7.311a7.457,7.457,0,0,0,1.615,5.219,7.116,7.116,0,0,0,9.35,0,7.462,7.462,0,0,0,1.615-5.219v-7.311a7.459,7.459,0,0,0-1.615-5.218,7.116,7.116,0,0,0-9.35,0A7.454,7.454,0,0,0,263.17,103.054Zm2.89-.271q0-4.251,3.4-4.25t3.4,4.25v7.853q0,4.251-3.4,4.25t-3.4-4.25Z"/>
          <polygon class="cls-3" points="244.869 295.348 244.869 274.914 242.318 274.914 236.811 277.157 237.389 279.64 241.911 277.701 241.979 277.701 241.979 295.348 244.869 295.348"/>
          <path class="cls-3" d="M120.6,295.756a6.046,6.046,0,0,0,4.675-1.751,7.456,7.456,0,0,0,1.615-5.219v-7.31a7.457,7.457,0,0,0-1.615-5.219,7.116,7.116,0,0,0-9.35,0,7.457,7.457,0,0,0-1.615,5.219v7.31a7.456,7.456,0,0,0,1.615,5.219A6.046,6.046,0,0,0,120.6,295.756ZM117.2,281.2q0-4.251,3.4-4.25t3.4,4.25v7.854q0,4.251-3.4,4.25t-3.4-4.25Z"/>
          <polygon class="cls-3" points="199.933 158.258 200.512 160.74 205.034 158.802 205.101 158.802 205.101 176.448 207.992 176.448 207.992 156.015 205.441 156.015 199.933 158.258"/>
          <path class="cls-3" d="M190.937,216.88a7.452,7.452,0,0,0-1.616,5.218v7.311a7.453,7.453,0,0,0,1.616,5.219,7.115,7.115,0,0,0,9.349,0,7.457,7.457,0,0,0,1.615-5.219V222.1a7.456,7.456,0,0,0-1.615-5.218,7.115,7.115,0,0,0-9.349,0Zm8.074,4.947v7.853q0,4.251-3.4,4.25t-3.4-4.25v-7.853q0-4.251,3.4-4.25T199.011,221.827Z"/>
          <polygon class="cls-3" points="206.204 98.736 206.782 101.218 211.304 99.28 211.372 99.28 211.372 116.926 214.262 116.926 214.262 96.493 211.711 96.493 206.204 98.736"/>
          <polygon class="cls-3" points="206.378 130.979 210.9 129.041 210.968 129.041 210.968 146.687 213.858 146.687 213.858 126.254 211.308 126.254 205.8 128.497 206.378 130.979"/>
          <path class="cls-3" d="M188.782,155.607a6.044,6.044,0,0,0-4.675,1.75,7.459,7.459,0,0,0-1.615,5.219v7.311a7.457,7.457,0,0,0,1.615,5.219,7.115,7.115,0,0,0,9.349,0,7.457,7.457,0,0,0,1.616-5.219v-7.311a7.459,7.459,0,0,0-1.616-5.219A6.042,6.042,0,0,0,188.782,155.607Zm3.4,14.551q0,4.251-3.4,4.25t-3.4-4.25v-7.853q0-4.251,3.4-4.25t3.4,4.25Z"/>
          <path class="cls-3" d="M174.627,187.118a7.459,7.459,0,0,0-1.616,5.219v7.311a7.457,7.457,0,0,0,1.616,5.219,7.115,7.115,0,0,0,9.349,0,7.457,7.457,0,0,0,1.616-5.219v-7.311a7.459,7.459,0,0,0-1.616-5.219,7.118,7.118,0,0,0-9.349,0Zm8.074,4.948v7.853q0,4.251-3.4,4.25t-3.4-4.25v-7.853q0-4.251,3.4-4.25T182.7,192.066Z"/>
          <polygon class="cls-3" points="214.821 235.97 214.821 215.537 212.271 215.537 206.763 217.78 207.341 220.262 211.863 218.324 211.931 218.324 211.931 235.97 214.821 235.97"/>
          <path class="cls-3" d="M154.975,187.118a7.459,7.459,0,0,0-1.615,5.219v7.311a7.457,7.457,0,0,0,1.615,5.219,7.115,7.115,0,0,0,9.349,0,7.457,7.457,0,0,0,1.616-5.219v-7.311a7.459,7.459,0,0,0-1.616-5.219,7.118,7.118,0,0,0-9.349,0Zm8.075,4.948v7.853q0,4.251-3.4,4.25t-3.4-4.25v-7.853q0-4.251,3.4-4.25T163.05,192.066Z"/>
          <path class="cls-3" d="M168.706,132.815v7.311a7.457,7.457,0,0,0,1.615,5.219,7.116,7.116,0,0,0,9.35,0,7.462,7.462,0,0,0,1.615-5.219v-7.311a7.459,7.459,0,0,0-1.615-5.218,7.116,7.116,0,0,0-9.35,0A7.454,7.454,0,0,0,168.706,132.815Zm2.89-.271q0-4.251,3.4-4.25t3.4,4.25V140.4q0,4.251-3.4,4.25t-3.4-4.25Z"/>
          <polygon class="cls-3" points="173.326 98.736 173.904 101.218 178.426 99.28 178.494 99.28 178.494 116.926 181.384 116.926 181.384 96.493 178.834 96.493 173.326 98.736"/>
          <path class="cls-3" d="M171.284,216.88a7.456,7.456,0,0,0-1.615,5.218v7.311a7.457,7.457,0,0,0,1.615,5.219,7.116,7.116,0,0,0,9.35,0,7.457,7.457,0,0,0,1.615-5.219V222.1a7.456,7.456,0,0,0-1.615-5.218,7.116,7.116,0,0,0-9.35,0Zm8.075,4.947v7.853q0,4.251-3.4,4.25t-3.4-4.25v-7.853q0-4.251,3.4-4.25T179.359,221.827Z"/>
          <path class="cls-3" d="M194.279,187.118a7.454,7.454,0,0,0-1.616,5.219v7.311a7.453,7.453,0,0,0,1.616,5.219,7.115,7.115,0,0,0,9.349,0,7.457,7.457,0,0,0,1.615-5.219v-7.311a7.459,7.459,0,0,0-1.615-5.219,7.118,7.118,0,0,0-9.349,0Zm8.074,4.948v7.853q0,4.251-3.4,4.25t-3.4-4.25v-7.853q0-4.251,3.4-4.25T202.353,192.066Z"/>
          <path class="cls-3" d="M155.816,259.1v-7.31a7.462,7.462,0,0,0-1.615-5.219,7.116,7.116,0,0,0-9.35,0,7.457,7.457,0,0,0-1.615,5.219v7.31a7.456,7.456,0,0,0,1.615,5.219,7.116,7.116,0,0,0,9.35,0A7.46,7.46,0,0,0,155.816,259.1Zm-2.89.272q0,4.251-3.4,4.25t-3.4-4.25v-7.854q0-4.251,3.4-4.25t3.4,4.25Z"/>
          <path class="cls-3" d="M140.251,295.756a6.042,6.042,0,0,0,4.674-1.751,7.456,7.456,0,0,0,1.616-5.219v-7.31a7.457,7.457,0,0,0-1.616-5.219,7.115,7.115,0,0,0-9.349,0,7.457,7.457,0,0,0-1.615,5.219v7.31a7.456,7.456,0,0,0,1.615,5.219A6.044,6.044,0,0,0,140.251,295.756Zm-3.4-14.552q0-4.251,3.4-4.25t3.4,4.25v7.854q0,4.251-3.4,4.25t-3.4-4.25Z"/>
          <path class="cls-3" d="M143.837,325.578a6.044,6.044,0,0,0,4.675-1.751,7.456,7.456,0,0,0,1.615-5.219V311.3a7.456,7.456,0,0,0-1.615-5.218,7.115,7.115,0,0,0-9.349,0,7.452,7.452,0,0,0-1.616,5.218v7.311a7.451,7.451,0,0,0,1.616,5.219A6.042,6.042,0,0,0,143.837,325.578Zm-3.4-14.552q0-4.251,3.4-4.25t3.4,4.25v7.853q0,4.251-3.4,4.25t-3.4-4.25Z"/>
          <path class="cls-3" d="M212.316,192.337v7.311a7.457,7.457,0,0,0,1.615,5.219,7.115,7.115,0,0,0,9.349,0,7.457,7.457,0,0,0,1.616-5.219v-7.311a7.459,7.459,0,0,0-1.616-5.219,7.118,7.118,0,0,0-9.349,0A7.459,7.459,0,0,0,212.316,192.337Zm2.89-.271q0-4.251,3.4-4.25t3.4,4.25v7.853q0,4.251-3.4,4.25t-3.4-4.25Z"/>
          <path class="cls-3" d="M136.164,259.1v-7.31a7.457,7.457,0,0,0-1.615-5.219,7.116,7.116,0,0,0-9.35,0,7.457,7.457,0,0,0-1.615,5.219v7.31a7.456,7.456,0,0,0,1.615,5.219,7.116,7.116,0,0,0,9.35,0A7.456,7.456,0,0,0,136.164,259.1Zm-2.89.272q0,4.251-3.4,4.25t-3.4-4.25v-7.854q0-4.251,3.4-4.25t3.4,4.25Z"/>
          <path class="cls-3" d="M124.185,325.578a6.046,6.046,0,0,0,4.675-1.751,7.46,7.46,0,0,0,1.615-5.219V311.3a7.461,7.461,0,0,0-1.615-5.218,7.116,7.116,0,0,0-9.35,0A7.456,7.456,0,0,0,117.9,311.3v7.311a7.456,7.456,0,0,0,1.615,5.219A6.044,6.044,0,0,0,124.185,325.578Zm-3.4-14.552q0-4.251,3.4-4.25t3.4,4.25v7.853q0,4.251-3.4,4.25t-3.4-4.25Z"/>
          <path class="cls-3" d="M104.094,73.293V80.6a7.457,7.457,0,0,0,1.615,5.219,7.115,7.115,0,0,0,9.349,0,7.457,7.457,0,0,0,1.616-5.219V73.293a7.456,7.456,0,0,0-1.616-5.218,7.115,7.115,0,0,0-9.349,0A7.456,7.456,0,0,0,104.094,73.293Zm2.89-.271q0-4.251,3.4-4.25t3.4,4.25v7.853q0,4.251-3.4,4.25t-3.4-4.25Z"/>
          <path class="cls-3" d="M215.37,162.576v7.311a7.457,7.457,0,0,0,1.615,5.219,7.115,7.115,0,0,0,9.349,0,7.457,7.457,0,0,0,1.616-5.219v-7.311a7.459,7.459,0,0,0-1.616-5.219,7.118,7.118,0,0,0-9.349,0A7.459,7.459,0,0,0,215.37,162.576Zm2.89-.271q0-4.251,3.4-4.25t3.4,4.25v7.853q0,4.251-3.4,4.25t-3.4-4.25Z"/>
          <polygon class="cls-3" points="228.047 235.97 228.047 215.537 225.497 215.537 219.989 217.78 220.567 220.262 225.089 218.324 225.157 218.324 225.157 235.97 228.047 235.97"/>
          <path class="cls-3" d="M169.129,176.857a6.046,6.046,0,0,0,4.675-1.751,7.457,7.457,0,0,0,1.615-5.219v-7.311a7.459,7.459,0,0,0-1.615-5.219,7.119,7.119,0,0,0-9.35,0,7.459,7.459,0,0,0-1.615,5.219v7.311a7.457,7.457,0,0,0,1.615,5.219A6.046,6.046,0,0,0,169.129,176.857Zm-3.4-14.552q0-4.251,3.4-4.25t3.4,4.25v7.853q0,4.251-3.4,4.25t-3.4-4.25Z"/>
          <polygon class="cls-3" points="227.084 146.687 227.084 126.254 224.534 126.254 219.026 128.497 219.604 130.979 224.126 129.041 224.194 129.041 224.194 146.687 227.084 146.687"/>
          <path class="cls-3" d="M82.374,57.4V48.815q-1.458,1.08-2.89,2.2V57.4Z"/>
          <path class="cls-3" d="M63.51,125.846a6.044,6.044,0,0,0-4.675,1.751,7.454,7.454,0,0,0-1.615,5.218v7.311a7.457,7.457,0,0,0,1.615,5.219A6.044,6.044,0,0,0,63.51,147.1a6.046,6.046,0,0,0,4.675-1.751,7.462,7.462,0,0,0,1.615-5.219v-7.311a7.459,7.459,0,0,0-1.615-5.218A6.046,6.046,0,0,0,63.51,125.846Zm3.4,14.551q0,4.251-3.4,4.25t-3.4-4.25v-7.853q0-4.251,3.4-4.25t3.4,4.25Z"/>
          <polygon class="cls-3" points="293.448 265.659 293.448 245.225 290.898 245.225 285.39 247.469 285.968 249.951 290.49 248.013 290.558 248.013 290.558 265.659 293.448 265.659"/>
          <path class="cls-3" d="M55.4,266.067a6.046,6.046,0,0,0,4.675-1.751,7.456,7.456,0,0,0,1.615-5.219v-7.31a7.457,7.457,0,0,0-1.615-5.219,6.046,6.046,0,0,0-4.675-1.751,6.046,6.046,0,0,0-4.675,1.751,7.457,7.457,0,0,0-1.615,5.219v7.31a7.456,7.456,0,0,0,1.615,5.219A6.046,6.046,0,0,0,55.4,266.067ZM52,251.515q0-4.251,3.4-4.25t3.4,4.25v7.854q0,4.251-3.4,4.25t-3.4-4.25Z"/>
          <path class="cls-3" d="M323.776,245.225l-5.508,2.244.578,2.482,4.522-1.938h.068v3.481c1-1.993,1.97-4,2.89-6.045v-.224Z"/>
          <polygon class="cls-3" points="41.6 176.448 41.6 156.015 39.05 156.015 33.542 158.258 34.12 160.74 38.642 158.802 38.71 158.802 38.71 176.448 41.6 176.448"/>
          <path class="cls-3" d="M296.089,276.257a7.115,7.115,0,0,0-9.349,0,7.457,7.457,0,0,0-1.615,5.219v7.31a7.456,7.456,0,0,0,1.615,5.219,5.793,5.793,0,0,0,4.069,1.7q3.555-3.414,6.9-7.041v-7.193A7.457,7.457,0,0,0,296.089,276.257Zm-1.274,12.8q0,4.251-3.4,4.25t-3.4-4.25V281.2q0-4.251,3.4-4.25t3.4,4.25Z"/>
          <polygon class="cls-3" points="58.198 206.209 58.198 185.776 55.648 185.776 50.14 188.019 50.718 190.501 55.24 188.563 55.308 188.563 55.308 206.209 58.198 206.209"/>
          <polygon class="cls-3" points="41.784 128.497 42.362 130.979 46.884 129.041 46.952 129.041 46.952 146.687 49.842 146.687 49.842 126.254 47.292 126.254 41.784 128.497"/>
          <path class="cls-3" d="M297.078,199.648v-7.311a7.464,7.464,0,0,0-1.615-5.219,7.119,7.119,0,0,0-9.35,0,7.459,7.459,0,0,0-1.615,5.219v7.311a7.457,7.457,0,0,0,1.615,5.219,7.116,7.116,0,0,0,9.35,0A7.462,7.462,0,0,0,297.078,199.648Zm-2.89.271q0,4.251-3.4,4.25t-3.4-4.25v-7.853q0-4.251,3.4-4.25t3.4,4.25Z"/>
          <path class="cls-3" d="M192.188,334.149a6.044,6.044,0,0,0-4.675,1.751,7.19,7.19,0,0,0-1.587,4.761c.963-.042,1.922-.1,2.88-.155.093-2.6,1.212-3.908,3.382-3.908q3.019,0,3.352,3.362c.952-.1,1.9-.21,2.846-.325a6.5,6.5,0,0,0-1.523-3.735A6.046,6.046,0,0,0,192.188,334.149Z"/>
          <path class="cls-3" d="M32.7,199.648a7.457,7.457,0,0,0,1.615,5.219,6.044,6.044,0,0,0,4.675,1.751,6.046,6.046,0,0,0,4.675-1.751,7.462,7.462,0,0,0,1.615-5.219v-7.311a7.464,7.464,0,0,0-1.615-5.219,6.045,6.045,0,0,0-4.675-1.75,6.044,6.044,0,0,0-4.675,1.75,7.459,7.459,0,0,0-1.615,5.219Zm2.89-7.582q0-4.251,3.4-4.25t3.4,4.25v7.853q0,4.251-3.4,4.25t-3.4-4.25Z"/>
          <polygon class="cls-3" points="302.607 235.97 302.607 215.537 300.057 215.537 294.549 217.78 295.127 220.262 299.649 218.324 299.717 218.324 299.717 235.97 302.607 235.97"/>
          <path class="cls-3" d="M333.656,162.576v7.311a7.457,7.457,0,0,0,1.615,5.219,6.044,6.044,0,0,0,4.675,1.751c.214,0,.4-.034.6-.046-.011-.818-.019-1.635-.041-2.45a4.561,4.561,0,0,1-.563.047q-3.4,0-3.4-4.25v-7.853c0-2.523.9-3.916,2.7-4.192-.105-.812-.224-1.619-.34-2.428a5.608,5.608,0,0,0-3.636,1.672A7.459,7.459,0,0,0,333.656,162.576Z"/>
          <polygon class="cls-3" points="74.478 176.448 74.478 156.015 71.928 156.015 66.42 158.258 66.998 160.74 71.52 158.802 71.588 158.802 71.588 176.448 74.478 176.448"/>
          <path class="cls-3" d="M332.527,221.827q0-4.25,3.4-4.25c.2-.8.394-1.6.578-2.405-.195-.011-.372-.043-.576-.043a6.044,6.044,0,0,0-4.675,1.751,7.456,7.456,0,0,0-1.615,5.218v7.311a7.9,7.9,0,0,0,1.275,4.745q.845-2.331,1.615-4.7Z"/>
          <path class="cls-3" d="M211.84,334.149a6.044,6.044,0,0,0-4.675,1.751,5.9,5.9,0,0,0-1.312,2.649q1.629-.276,3.247-.584a2.976,2.976,0,0,1,2.74-1.367,3.524,3.524,0,0,1,1.792.438q1.593-.349,3.173-.731c-.1-.132-.179-.284-.29-.405A6.046,6.046,0,0,0,211.84,334.149Z"/>
          <polygon class="cls-3" points="71.424 206.209 71.424 185.776 68.874 185.776 63.366 188.019 63.944 190.501 68.466 188.563 68.534 188.563 68.534 206.209 71.424 206.209"/>
          <path class="cls-3" d="M266.8,306.079a7.116,7.116,0,0,0-9.35,0,7.456,7.456,0,0,0-1.615,5.218v7.311a10.716,10.716,0,0,0,.295,2.53q1.326-.724,2.637-1.474c-.022-.252-.042-.506-.042-.785v-7.853q0-4.251,3.4-4.25t3.4,4.25v4.563c.971-.618,1.933-1.25,2.89-1.888v-2.4A7.461,7.461,0,0,0,266.8,306.079Z"/>
          <path class="cls-3" d="M50.593,157.357a7.454,7.454,0,0,0-1.616,5.219v7.311a7.453,7.453,0,0,0,1.616,5.219,6.042,6.042,0,0,0,4.674,1.751,6.044,6.044,0,0,0,4.675-1.751,7.457,7.457,0,0,0,1.615-5.219v-7.311a7.459,7.459,0,0,0-1.615-5.219,6.044,6.044,0,0,0-4.675-1.75A6.042,6.042,0,0,0,50.593,157.357Zm8.074,4.948v7.853q0,4.251-3.4,4.25t-3.4-4.25v-7.853q0-4.251,3.4-4.25T58.667,162.305Z"/>
          <polygon class="cls-3" points="326.278 176.448 326.278 156.015 323.727 156.015 318.22 158.258 318.798 160.74 323.32 158.802 323.388 158.802 323.388 176.448 326.278 176.448"/>
          <path class="cls-3" d="M287.625,66.324a6.046,6.046,0,0,0-4.675,1.751,7.456,7.456,0,0,0-1.615,5.218V80.6a7.457,7.457,0,0,0,1.615,5.219,7.116,7.116,0,0,0,9.35,0,7.457,7.457,0,0,0,1.615-5.219V73.293a7.456,7.456,0,0,0-1.615-5.218A6.046,6.046,0,0,0,287.625,66.324Zm3.4,14.551q0,4.251-3.4,4.25t-3.4-4.25V73.022q0-4.251,3.4-4.25t3.4,4.25Z"/>
          <path class="cls-3" d="M40.861,102.783v7.853q0,4.251-3.4,4.25t-3.4-4.25v-4.495q-1.45,2.876-2.792,5.811a6.412,6.412,0,0,0,1.517,3.632,6.042,6.042,0,0,0,4.674,1.751,6.044,6.044,0,0,0,4.675-1.751,7.457,7.457,0,0,0,1.615-5.219v-7.311a7.454,7.454,0,0,0-1.615-5.218,5.265,5.265,0,0,0-2.692-1.5c-.445.748-.891,1.5-1.324,2.252C39.942,98.85,40.861,100.241,40.861,102.783Z"/>
          <path class="cls-3" d="M315.16,125.846a6.042,6.042,0,0,0-4.674,1.751,7.45,7.45,0,0,0-1.616,5.218v7.311a7.453,7.453,0,0,0,1.616,5.219,7.115,7.115,0,0,0,9.349,0,7.457,7.457,0,0,0,1.615-5.219v-7.311a7.454,7.454,0,0,0-1.615-5.218A6.044,6.044,0,0,0,315.16,125.846Zm3.4,14.551q0,4.251-3.4,4.25t-3.4-4.25v-7.853q0-4.251,3.4-4.25t3.4,4.25Z"/>
          <path class="cls-3" d="M25.23,132.544V140.4q0,4.251-3.4,4.25a3.924,3.924,0,0,1-1.331-.22c-.178.816-.355,1.631-.52,2.452a8.323,8.323,0,0,0,1.851.217,6.046,6.046,0,0,0,4.675-1.751,7.457,7.457,0,0,0,1.615-5.219v-7.311a7.454,7.454,0,0,0-1.615-5.218,4.888,4.888,0,0,0-1.1-.868c-.317.929-.618,1.865-.918,2.8A5.238,5.238,0,0,1,25.23,132.544Z"/>
          <path class="cls-3" d="M24.01,204.867a7.457,7.457,0,0,0,1.616-5.219v-7.311a7.459,7.459,0,0,0-1.616-5.219,6.042,6.042,0,0,0-4.674-1.75,7.83,7.83,0,0,0-2.386.356q.06,1.431.142,2.856a3.214,3.214,0,0,1,2.244-.764q3.4,0,3.4,4.25v7.853q0,4.251-3.4,4.25a4.694,4.694,0,0,1-.585-.048c.13.83.269,1.657.411,2.483.061,0,.112.014.174.014A6.042,6.042,0,0,0,24.01,204.867Z"/>
          <path class="cls-3" d="M320.95,234.628a7.457,7.457,0,0,0,1.615-5.219V222.1a7.456,7.456,0,0,0-1.615-5.218,7.116,7.116,0,0,0-9.35,0,7.456,7.456,0,0,0-1.615,5.218v7.311a7.457,7.457,0,0,0,1.615,5.219,7.116,7.116,0,0,0,9.35,0Zm-8.075-4.948v-7.853q0-4.251,3.4-4.25t3.4,4.25v7.853q0,4.251-3.4,4.25T312.875,229.68Z"/>
          <polygon class="cls-3" points="323.224 185.776 320.674 185.776 315.166 188.019 315.744 190.501 320.266 188.563 320.334 188.563 320.334 206.209 323.224 206.209 323.224 185.776"/>
          <path class="cls-3" d="M57.113,96.085a6.042,6.042,0,0,0-4.674,1.751,7.45,7.45,0,0,0-1.616,5.218v7.311a7.453,7.453,0,0,0,1.616,5.219,6.042,6.042,0,0,0,4.674,1.751,6.046,6.046,0,0,0,4.675-1.751,7.457,7.457,0,0,0,1.615-5.219v-7.311a7.454,7.454,0,0,0-1.615-5.218A6.046,6.046,0,0,0,57.113,96.085Zm3.4,14.551q0,4.251-3.4,4.25t-3.4-4.25v-7.853q0-4.251,3.4-4.25t3.4,4.25Z"/>
          <polygon class="cls-3" points="28.374 176.448 28.374 156.015 25.824 156.015 20.316 158.258 20.894 160.74 25.416 158.802 25.484 158.802 25.484 176.448 28.374 176.448"/>
          <path class="cls-3" d="M29.083,229.409V222.1a7.456,7.456,0,0,0-1.615-5.218,6.044,6.044,0,0,0-4.675-1.751,8.261,8.261,0,0,0-1.881.224c.187.815.39,1.623.589,2.433a3.958,3.958,0,0,1,1.292-.209q3.4,0,3.4,4.25v7.853a6.146,6.146,0,0,1-.435,2.472c.351,1.009.708,2.015,1.078,3.015a4.917,4.917,0,0,0,.632-.539A7.457,7.457,0,0,0,29.083,229.409Z"/>
          <path class="cls-3" d="M39.186,245.225l-5.507,2.244.578,2.482,4.522-1.938h.068v12.524q1.405,2.4,2.89,4.754V245.225Z"/>
          <path class="cls-3" d="M69.148,234.628a7.457,7.457,0,0,0,1.615-5.219V222.1a7.456,7.456,0,0,0-1.615-5.218,6.046,6.046,0,0,0-4.675-1.751A6.046,6.046,0,0,0,59.8,216.88a7.456,7.456,0,0,0-1.615,5.218v7.311a7.457,7.457,0,0,0,1.615,5.219,6.046,6.046,0,0,0,4.675,1.751A6.046,6.046,0,0,0,69.148,234.628Zm-8.075-4.948v-7.853q0-4.251,3.4-4.25t3.4,4.25v7.853q0,4.251-3.4,4.25T61.073,229.68Z"/>
          <path class="cls-3" d="M299.356,71.457l.273-.117c-.136-.153-.271-.307-.408-.46Z"/>
          <path class="cls-3" d="M289.112,96.085a6.044,6.044,0,0,0-4.675,1.751,7.454,7.454,0,0,0-1.615,5.218v7.311a7.457,7.457,0,0,0,1.615,5.219,7.116,7.116,0,0,0,9.35,0,7.462,7.462,0,0,0,1.615-5.219v-7.311a7.459,7.459,0,0,0-1.615-5.218A6.046,6.046,0,0,0,289.112,96.085Zm3.4,14.551q0,4.251-3.4,4.25t-3.4-4.25v-7.853q0-4.251,3.4-4.25t3.4,4.25Z"/>
          <path class="cls-3" d="M308.764,96.085a6.044,6.044,0,0,0-4.675,1.751,7.454,7.454,0,0,0-1.615,5.218v7.311a7.457,7.457,0,0,0,1.615,5.219,7.116,7.116,0,0,0,9.35,0,7.462,7.462,0,0,0,1.615-5.219v-7.311a7.459,7.459,0,0,0-1.615-5.218A6.046,6.046,0,0,0,308.764,96.085Zm3.4,14.551q0,4.251-3.4,4.25t-3.4-4.25v-7.853q0-4.251,3.4-4.25t3.4,4.25Z"/>
          <path class="cls-3" d="M307.116,266.067a6.046,6.046,0,0,0,4.675-1.751,7.46,7.46,0,0,0,1.615-5.219v-7.31a7.462,7.462,0,0,0-1.615-5.219,7.116,7.116,0,0,0-9.35,0,7.457,7.457,0,0,0-1.615,5.219v7.31a7.456,7.456,0,0,0,1.615,5.219A6.044,6.044,0,0,0,307.116,266.067Zm-3.4-14.552q0-4.251,3.4-4.25t3.4,4.25v7.854q0,4.251-3.4,4.25t-3.4-4.25Z"/>
          <path class="cls-3" d="M68.853,66.324a6.046,6.046,0,0,0-4.675,1.751,7.456,7.456,0,0,0-1.615,5.218V80.6a7.457,7.457,0,0,0,1.615,5.219,6.046,6.046,0,0,0,4.675,1.751,6.046,6.046,0,0,0,4.675-1.751A7.457,7.457,0,0,0,75.143,80.6V73.293a7.456,7.456,0,0,0-1.615-5.218A6.046,6.046,0,0,0,68.853,66.324Zm3.4,14.551q0,4.251-3.4,4.25t-3.4-4.25V73.022q0-4.251,3.4-4.25t3.4,4.25Z"/>
          <polygon class="cls-3" points="293.4 176.448 293.4 156.015 290.85 156.015 285.342 158.258 285.92 160.74 290.442 158.802 290.51 158.802 290.51 176.448 293.4 176.448"/>
          <path class="cls-3" d="M139.658,334.149a6.717,6.717,0,0,0-3.731.962q4.605,1.257,9.314,2.252a5.346,5.346,0,0,0-.908-1.463A6.046,6.046,0,0,0,139.658,334.149Z"/>
          <path class="cls-3" d="M78.8,192.337v7.311a7.453,7.453,0,0,0,1.616,5.219,7.115,7.115,0,0,0,9.349,0,7.457,7.457,0,0,0,1.615-5.219v-7.311a7.459,7.459,0,0,0-1.615-5.219,7.118,7.118,0,0,0-9.349,0A7.454,7.454,0,0,0,78.8,192.337Zm2.89-.271q0-4.251,3.4-4.25t3.4,4.25v7.853q0,4.251-3.4,4.25t-3.4-4.25Z"/>
          <polygon class="cls-3" points="309.998 206.209 309.998 185.776 307.447 185.776 301.94 188.019 302.518 190.501 307.04 188.563 307.108 188.563 307.108 206.209 309.998 206.209"/>
          <path class="cls-3" d="M150.35,26.334a7.116,7.116,0,0,0,9.35,0,7.459,7.459,0,0,0,1.615-5.218V17.982c-.966.1-1.93.21-2.89.33v3.075q0,4.251-3.4,4.25t-3.4-4.25V19.316q-1.449.244-2.89.513v1.287A7.454,7.454,0,0,0,150.35,26.334Z"/>
          <path class="cls-3" d="M92.821,175.106a7.462,7.462,0,0,0,1.615-5.219v-7.311a7.464,7.464,0,0,0-1.615-5.219,7.119,7.119,0,0,0-9.35,0,7.459,7.459,0,0,0-1.615,5.219v7.311a7.457,7.457,0,0,0,1.615,5.219,7.116,7.116,0,0,0,9.35,0Zm-8.075-4.948v-7.853q0-4.251,3.4-4.25t3.4,4.25v7.853q0,4.251-3.4,4.25T84.746,170.158Z"/>
          <path class="cls-3" d="M170,26.334a7.115,7.115,0,0,0,9.349,0,7.455,7.455,0,0,0,1.616-5.218V17.081c-.76-.011-1.517-.029-2.279-.029-.2,0-.407.007-.611.008v4.327q0,4.251-3.4,4.25t-3.4-4.25V17.228c-.966.043-1.929.1-2.89.16v3.728A7.454,7.454,0,0,0,170,26.334Z"/>
          <path class="cls-3" d="M189.654,26.334a7.116,7.116,0,0,0,9.35,0,7.459,7.459,0,0,0,1.615-5.218v-2.58q-1.442-.2-2.89-.364v3.215q0,4.251-3.4,4.25t-3.4-4.25V17.511c-.96-.072-1.925-.129-2.89-.184v3.789A7.454,7.454,0,0,0,189.654,26.334Z"/>
          <polygon class="cls-3" points="88.496 101.218 93.018 99.28 93.085 99.28 93.085 116.926 95.976 116.926 95.976 96.493 93.425 96.493 87.918 98.736 88.496 101.218"/>
          <path class="cls-3" d="M313.357,169.887v-7.311a7.459,7.459,0,0,0-1.615-5.219,7.119,7.119,0,0,0-9.35,0,7.459,7.459,0,0,0-1.615,5.219v7.311a7.457,7.457,0,0,0,1.615,5.219,7.116,7.116,0,0,0,9.35,0A7.457,7.457,0,0,0,313.357,169.887Zm-2.89.271q0,4.251-3.4,4.25t-3.4-4.25v-7.853q0-4.251,3.4-4.25t3.4,4.25Z"/>
          <path class="cls-3" d="M273.275,306.979l.578,2.482,1.475-.632q2.672-1.99,5.252-4.093h-1.8Z"/>
          <path class="cls-3" d="M52.3,87.165h2.89V74.286q-1.468,1.733-2.89,3.5Z"/>
          <path class="cls-3" d="M91.367,56.062a7.116,7.116,0,0,0,9.35,0,7.462,7.462,0,0,0,1.615-5.219V43.532a7.461,7.461,0,0,0-1.615-5.218,5.009,5.009,0,0,0-.9-.769q-1.4.782-2.78,1.589c1.6.382,2.407,1.748,2.407,4.127v7.853q0,4.251-3.4,4.25t-3.4-4.25V43.261A7.54,7.54,0,0,1,92.8,41.7q-1.536.963-3.047,1.96v7.181A7.457,7.457,0,0,0,91.367,56.062Z"/>
          <polygon class="cls-3" points="50.805 235.97 50.805 215.537 48.255 215.537 42.747 217.78 43.325 220.262 47.847 218.324 47.915 218.324 47.915 235.97 50.805 235.97"/>
          <path class="cls-3" d="M77.835,229.409a7.457,7.457,0,0,0,1.615,5.219,7.116,7.116,0,0,0,9.35,0,7.457,7.457,0,0,0,1.615-5.219V222.1A7.456,7.456,0,0,0,88.8,216.88a7.116,7.116,0,0,0-9.35,0,7.456,7.456,0,0,0-1.615,5.218Zm2.89-7.582q0-4.251,3.4-4.25t3.4,4.25v7.853q0,4.251-3.4,4.25t-3.4-4.25Z"/>
          <path class="cls-3" d="M98.139,127.6a7.454,7.454,0,0,0-1.615,5.218v7.311a7.457,7.457,0,0,0,1.615,5.219,7.116,7.116,0,0,0,9.35,0,7.462,7.462,0,0,0,1.615-5.219v-7.311a7.459,7.459,0,0,0-1.615-5.218,7.116,7.116,0,0,0-9.35,0Zm8.075,4.947V140.4q0,4.251-3.4,4.25t-3.4-4.25v-7.853q0-4.251,3.4-4.25T106.214,132.544Z"/>
          <polygon class="cls-3" points="88.657 68.975 89.236 71.457 93.758 69.519 93.825 69.519 93.825 87.165 96.716 87.165 96.716 66.732 94.165 66.732 88.657 68.975"/>
          <path class="cls-3" d="M126.822,26.334a5.079,5.079,0,0,0,.726-1.03q-3.63,1.208-7.183,2.583a8.379,8.379,0,0,0,1.782.2A6.046,6.046,0,0,0,126.822,26.334Z"/>
          <path class="cls-3" d="M141.357,27.677V21.386c-.966.228-1.931.46-2.89.705v5.586Z"/>
          <path class="cls-3" d="M103.354,110.365a7.457,7.457,0,0,0,1.615,5.219,7.115,7.115,0,0,0,9.349,0,7.457,7.457,0,0,0,1.616-5.219v-7.311a7.455,7.455,0,0,0-1.616-5.218,7.115,7.115,0,0,0-9.349,0,7.454,7.454,0,0,0-1.615,5.218Zm2.89-7.582q0-4.251,3.4-4.25t3.4,4.25v7.853q0,4.251-3.4,4.25t-3.4-4.25Z"/>
          <polygon class="cls-3" points="293.434 128.497 294.012 130.979 298.534 129.041 298.602 129.041 298.602 146.687 301.492 146.687 301.492 126.254 298.942 126.254 293.434 128.497"/>
          <path class="cls-3" d="M328.522,132.815v7.311a7.457,7.457,0,0,0,1.615,5.219,6.046,6.046,0,0,0,4.675,1.751,7.744,7.744,0,0,0,2.549-.4c-.176-.871-.367-1.736-.557-2.6a3.4,3.4,0,0,1-1.992.552q-3.4,0-3.4-4.25v-7.853c0-1.737.43-2.935,1.281-3.607-.273-.844-.548-1.686-.836-2.524a5.024,5.024,0,0,0-1.72,1.184A7.454,7.454,0,0,0,328.522,132.815Z"/>
          <path class="cls-3" d="M89.556,306.079a7.115,7.115,0,0,0-9.349,0,5.057,5.057,0,0,0-.625.869c.757.587,1.515,1.174,2.283,1.748a2.936,2.936,0,0,1,3.016-1.92q3.4,0,3.4,4.25v2.227q1.434.968,2.89,1.9V311.3A7.456,7.456,0,0,0,89.556,306.079Z"/>
          <path class="cls-3" d="M83.162,125.846a6.044,6.044,0,0,0-4.675,1.751,7.454,7.454,0,0,0-1.615,5.218v7.311a7.457,7.457,0,0,0,1.615,5.219,7.116,7.116,0,0,0,9.35,0,7.462,7.462,0,0,0,1.615-5.219v-7.311a7.459,7.459,0,0,0-1.615-5.218A6.046,6.046,0,0,0,83.162,125.846Zm3.4,14.551q0,4.251-3.4,4.25t-3.4-4.25v-7.853q0-4.251,3.4-4.25t3.4,4.25Z"/>
          <path class="cls-3" d="M330.6,192.337v7.311a7.453,7.453,0,0,0,1.616,5.219,6.042,6.042,0,0,0,4.674,1.751,8.958,8.958,0,0,0,1.336-.1c.16-.928.319-1.856.462-2.789a3.51,3.51,0,0,1-1.8.442q-3.4,0-3.4-4.25v-7.853q0-4.251,3.4-4.25a3.039,3.039,0,0,1,3.263,2.8q.156-2.19.252-4.4a6.84,6.84,0,0,0-3.515-.851,6.042,6.042,0,0,0-4.674,1.75A7.454,7.454,0,0,0,330.6,192.337Z"/>
          <path class="cls-3" d="M172.536,334.149a6.044,6.044,0,0,0-4.675,1.751,7,7,0,0,0-1.568,4.462c.95.072,1.905.126,2.859.181.083-2.621,1.2-3.945,3.384-3.945q3.377,0,3.4,4.2c.917.016,1.834.035,2.755.035h.12a7.294,7.294,0,0,0-1.6-4.929A6.046,6.046,0,0,0,172.536,334.149Z"/>
          <polygon class="cls-3" points="74.615 265.659 74.615 245.225 72.064 245.225 66.557 247.469 67.135 249.951 71.657 248.013 71.725 248.013 71.725 265.659 74.615 265.659"/>
          <path class="cls-3" d="M76.766,96.085a6.044,6.044,0,0,0-4.675,1.751,7.454,7.454,0,0,0-1.615,5.218v7.311a7.457,7.457,0,0,0,1.615,5.219,6.044,6.044,0,0,0,4.675,1.751,6.042,6.042,0,0,0,4.674-1.751,7.457,7.457,0,0,0,1.616-5.219v-7.311a7.455,7.455,0,0,0-1.616-5.218A6.042,6.042,0,0,0,76.766,96.085Zm3.4,14.551q0,4.251-3.4,4.25t-3.4-4.25v-7.853q0-4.251,3.4-4.25t3.4,4.25Z"/>
          <path class="cls-3" d="M67.627,274.914H65.076l-5.508,2.243.579,2.483,4.522-1.939h.067v16.223c.483.478.97.951,1.459,1.424h1.432Z"/>
          <path class="cls-3" d="M92.957,264.316a7.456,7.456,0,0,0,1.616-5.219v-7.31a7.457,7.457,0,0,0-1.616-5.219,7.115,7.115,0,0,0-9.349,0,7.457,7.457,0,0,0-1.615,5.219v7.31a7.456,7.456,0,0,0,1.615,5.219,7.115,7.115,0,0,0,9.349,0Zm-8.074-4.947v-7.854q0-4.251,3.4-4.25t3.4,4.25v7.854q0,4.251-3.4,4.25T84.883,259.369Z"/>
          <path class="cls-3" d="M270.942,56.062a7.116,7.116,0,0,0,9.35,0,5.6,5.6,0,0,0,1.208-2.174q-1.25-1.029-2.523-2.032c-.191,2.331-1.3,3.508-3.36,3.508q-3.4,0-3.4-4.25V46.791q-1.434-1.017-2.89-2v6.056A7.457,7.457,0,0,0,270.942,56.062Z"/>
          <path class="cls-3" d="M110.823,318.608V311.3a7.456,7.456,0,0,0-1.615-5.218,7.116,7.116,0,0,0-9.35,0,7.456,7.456,0,0,0-1.615,5.218v7.311c0,.313.035.589.055.881q1.615.927,3.254,1.818a6.2,6.2,0,0,1-.419-2.428v-7.853q0-4.251,3.4-4.25t3.4,4.25v7.853c0,2.653-1.006,4.047-2.992,4.217q1.585.812,3.192,1.587a4.945,4.945,0,0,0,1.075-.856A7.456,7.456,0,0,0,110.823,318.608Z"/>
          <path class="cls-3" d="M75,281.476v7.31a7.456,7.456,0,0,0,1.616,5.219,6.043,6.043,0,0,0,4.675,1.751,6.042,6.042,0,0,0,4.674-1.751,7.456,7.456,0,0,0,1.616-5.219v-7.31a7.457,7.457,0,0,0-1.616-5.219,6.042,6.042,0,0,0-4.674-1.751,6.043,6.043,0,0,0-4.675,1.751A7.457,7.457,0,0,0,75,281.476ZM77.9,281.2q0-4.251,3.4-4.25t3.4,4.25v7.854q0,4.251-3.4,4.25t-3.4-4.25Z"/>
          <path class="cls-3" d="M226.765,27.677V24.311c-.959-.3-1.924-.579-2.89-.859v4.225Z"/>
          <path class="cls-3" d="M303.946,87.165h2.89V80.021q-1.422-1.839-2.89-3.638Z"/>
          <path class="cls-3" d="M323.741,115.584a6.044,6.044,0,0,0,4.675,1.751h.013q-.537-1.305-1.095-2.6c-1.536-.412-2.318-1.768-2.318-4.1V109.62q-1.387-2.925-2.89-5.782v6.527A7.457,7.457,0,0,0,323.741,115.584Z"/>
          <path class="cls-3" d="M213.539,27.677V20.826c-.961-.211-1.923-.419-2.89-.612v7.463Z"/>
        </g>
        <path class="cls-4" d="M171.209,265,129.22,208.266c-.192-.02-47.486,27.221-47.31,26.857l44.077-80.578a.4.4,0,0,1,.685-.055L156.946,185.9a.4.4,0,0,0,.715-.32l-10.6-45.067,32.4-76.627L210.932,140.5l0,.028-10.6,45.051a.4.4,0,0,0,.715.32l30.273-31.411a.4.4,0,0,1,.686.055l44.076,80.578a.4.4,0,0,1-.577.507l-46.223-27.417c-.191.02-42.5,56.785-42.5,56.785L179,276.556Z"/>
        <circle class="cls-5" cx="179.053" cy="179.053" r="174.852"/>
        <circle class="cls-6" cx="179.349" cy="178.948" r="162.058"/>
        <path class="cls-7" d="M179,276.556,171.209,265,129.22,208.266c-.192-.02-47.486,27.221-47.31,26.857l44.077-80.578a.4.4,0,0,1,.685-.055L156.946,185.9a.4.4,0,0,0,.715-.32l-10.6-45.067,32.4-76.627Z"/>
      </g>
    </g>
  </g>
</svg>
